<svg 
    xmlns="http://www.w3.org/2000/svg"  
    viewBox="0 0 105 175" 
    preserveAspectRatio="xMinYMid meet" 
    >

    <g>
        <path 
            fill="rgb(208,187,78)"
            transform="translate(0,15) scale(4.15,4.15)"
            d="M 6 0 L 5.244 0.551 C 3.645 1.6 3.339 2.517 3.336 6.261 L 3.209 9 C -1 13 -1 22 3.375 26 L 3.353 29 C 3.323 32.54 3.607 33.421 5.167 34.566 L 6 35 L 15 35 L 15 32.5 L 6.16 32.5 C 5.75 31 5.9 30 5.836 28.739 L 5.709 26 C 1.5 22 1.5 13 5.875 9 L 15 9 L 15 8 L 5.853 8 L 5.853 7 L 15 7 L 15 6 L 5.853 6 L 5.853 5 L 15 5 L 15 4 L 5.88 4 C 6 3 6 3 6.1 2.5 L 15 2.5 L 15 0 Z"  
        />
    </g>

    <g
        transform="translate(30,0)"
    >
    <!-- fill="rgb(98,8,8)" -->
        <path
            fill="rgb(98,8,8)"
            d="M 67.3964 0 C 70.595 1.1985 73.432 2.0118 75 4.0237 C 75 7.0414 75 12.8477 75 17.3521 C 75 19.196 75 19.196 75 21.0771 C 75 24.1124 75 29.1716 75 30.1775 C 73.432 31.1834 70.1124 30.1775 68.4024 30.1775 C 68.4607 30.8972 68.5191 31.6168 68.5792 32.3583 C 68.9919 41.4742 67.3847 50.5238 61.3767 57.7145 C 59.3491 59.3491 59.3491 59.3491 56.3314 59.3491 C 56.3839 60.4811 56.3839 60.4811 56.4375 61.636 C 56.6452 69.4903 55.8559 76.3947 52.3077 83.4911 C 51.6438 83.4911 50.9799 83.4911 50.2959 83.4911 C 50.4592 84.2134 50.6226 84.9356 50.791 85.6798 C 51.2872 88.4396 51.4358 90.939 51.4275 93.7389 C 51.4275 94.7062 51.4275 95.6736 51.4275 96.6702 C 51.3088 99.4239 50.9002 101.969 50.4216 104.6783 C 49.7857 110.0367 51.8914 112.9085 54.8186 117.2483 C 58.3905 123.047 59.0213 130.1362 58.3432 136.8047 C 56.3314 139.3195 56.3314 139.3195 54.3195 140.8284 C 54.6515 141.4923 54.9834 142.1562 55.3254 142.8402 C 61.3006 143.1722 73.432 142.8402 75 143.8462 C 75 144.8521 75 152.7288 75 157.1746 C 75 158.4362 75 159.6979 75 160.9978 C 74.1079 170.0686 74.1079 170.0686 72.1721 172.7528 C 68.7263 175 65.437 175 61.3609 174.5 C 60 174 60.1032 174.0026 59.4552 173.4736 C 56.8349 171.6651 55.8395 171.9034 52.7478 172.3262 C 45.7405 172.5753 41.1866 168.517 36.213 163.9645 C 33.494 160.7747 31.2507 157.5438 29.1716 153.9053 C 28.4869 155.119 28.4869 155.119 27.7885 156.3572 C 26.1538 158.9349 26.1538 158.9349 24.142 159.9408 C 18.7377 160.4008 18.7377 160.4008 16.5426 158.8013 C 12.093 153.0529 10.445 144.0494 10.79 136.8833 C 11.2488 133.397 12.0949 130.1214 13.0769 126.7456 C 12.3093 126.7248 11.5416 126.7041 10.7507 126.6827 C 8.0473 125.7396 8.0473 125.7396 6.3891 122.7926 C 4.5389 118.1058 4.6229 113.5534 4.7152 108.5762 C 4.712 107.699 4.7088 106.8218 4.7054 105.918 C 4.7458 101.0701 5.1668 97.0929 7.0414 92.5444 C 6.0663 92.2539 5.0912 91.9635 4.0865 91.6642 C 1.0059 90.5325 1.0059 90.5325 0 88.5207 C -1.1211 79.7281 1.0758 72.2194 5.0296 64.3787 C 6.7074 62.4926 6.7074 62.4926 8.0473 61.3609 C 6.8336 60.8319 6.8336 60.8319 5.5954 60.2922 C 3.0178 58.3432 3.0178 58.3432 1.8861 55.1997 C 2.1078 48.3254 5.6736 43.5312 10.4364 38.7907 C 12.4157 36.6373 13.0912 35.8166 13.0219 32.8534 C 12.8741 32.0119 12.7263 31.1703 12.574 30.3033 C 11.8829 26.1317 12.1781 24.0011 14.3972 20.3698 C 18.6406 14.7517 24.5624 11.2603 31.1834 9.0533 C 33.2488 9.151 35.314 9.2515 37.3781 9.3737 C 44.5403 9.7279 49.5311 9.8743 55.3254 5.0925 C 56.6878 3.7514 58.0345 2.3938 59.3491 1.0059 C 62.2322 -0.4356 64.1906 -0.3083 67.3964 0 Z"
        />

        <g fill="rgb(208,187,78)">
            <path
                d="M 64.3787 5.0296 L 71.4201 11.0651 L 75 11.0651 L 75 15.0888 L 69.4083 15.0888 L 64.3787 11.0651 L 59.3491 15.0888 C 59.3491 15.0888 58.3432 16.0947 59.3491 17.1006 C 60.013 18.0964 61.3609 19.1124 62.3669 21.1243 L 75 21.1243 L 75 26.1538 L 63.3728 26.1538 C 65.3846 37.2189 64.3787 41.2426 57.3373 54.3195 C 43.2544 38.2249 48.284 32.1893 48.284 26.1538 C 40.0845 38.773 32.1893 54.9135 32.1893 70.4142 C 42.2485 76.4497 44.3594 81.7208 45.8871 88.0924 C 46.9143 94.601 45.8571 100.3396 44.2604 106.6272 C 38.046 104.6465 35.3036 100.4505 31.1834 95.5621 L 31.1834 107.6331 C 41.2426 107.6331 43.5915 110.791 47.2781 114.6746 C 51.6655 120.9841 53.1357 127.188 53.3136 134.7929 C 44.6085 133.9224 40.011 130.9585 33.1953 123.7278 C 34.1908 128.875 34.1908 128.875 35.2071 132.7811 C 46.2722 136.8047 49.2899 140.8284 51.3018 148.8757 L 75 148.8757 L 75 153.9053 L 52.3077 153.9053 C 52.3077 155.897 52.3077 157.8888 52.3077 159.9408 L 59.3491 159.9408 L 64.3787 163.9645 L 69.4083 159.9408 L 75 159.9408 L 75 163.9645 L 71.4201 163.9645 L 64.3787 170 L 52.3077 159.9408 C 52.3077 163.9645 52.3077 162.9586 52.3077 166.9822 C 45.6483 165.7893 39.9932 160.5221 36.213 155.0999 C 32.5079 148.53 33.1953 141.1019 33.1953 133.787 C 32.8883 132.439 32.5585 131.0957 32.1893 129.7633 C 29.1716 114.6746 32.1893 129.7633 31.1834 133.787 C 30.1775 146.8639 26.1538 150.8876 22.1302 154.9112 C 14.0828 144.8521 16.0947 134.7929 18.3854 127.4686 C 21.1243 119.7041 22.1302 117.6923 25.1479 115.6805 C 27.1598 115.6805 28.1657 116.6864 30.1775 120.7101 C 28.4518 112.1971 27.9093 106.1524 28.1657 95.5621 C 24.1228 109.7953 23.1361 112.6627 13.0769 121.716 C 5.0296 105.6213 11.0651 94.5562 15.2223 90.2811 C 19.1124 86.5089 20.1183 84.497 24.142 84.497 C 26.1538 85.503 27.1598 87.5148 27.1598 88.5207 C 26.1538 83.5414 26.1538 78.5621 26.1538 73.432 C 20.1183 82.4852 13.1816 84.3587 5.0296 86.5089 C 5.0296 74.4379 8.0473 69.4083 10.6879 66.0448 C 15.3186 60.8738 19.9022 59.0311 26.6175 57.518 C 29.5014 56.522 29.5014 56.522 31.1834 50.2959 C 23.1361 56.3314 16.0947 55.3254 7.0414 53.3136 C 10.56 45.2606 15.0888 37.2189 24.0163 34.767 C 28.1657 34.2012 32.7457 34.042 37.2189 34.2012 L 41.2426 28.1657 C 32.1893 33.1953 26.1538 32.1893 17.1006 29.1716 C 19.1825 23.0992 22.0375 19.4837 27.5999 16.2833 C 34.3375 13.1044 37.2189 11.0651 51.3018 16.0947 C 51.9864 15.3893 52.671 14.6839 53.3765 13.9571 C 56.5404 10.7841 59.9414 7.9072 64.3787 5.0296 Z "
            />
            <path
                d="M 41.2426 41.2426 C 57.3373 54.3195 53.3136 67.3964 48.284 79.4675 C 28.1657 65.3846 36.213 50.2959 41.2426 41.2426 Z"
            />
        </g>
    </g>

</svg>